<?xml version="1.0" encoding="utf-8"?>
<!DOCTYPE svg PUBLIC "-//W3C//DTD SVG 20010904//EN" "http://www.w3.org/TR/2001/REC-SVG-20010904/DTD/svg10.dtd">
<svg height="920.000000pt" preserveAspectRatio="xMidYMid meet" version="1.0" viewBox="0 0 1024.000000 920.000000" width="1024.000000pt" xmlns="http://www.w3.org/2000/svg"><rect fill="black" height="920.0" width="1024.0" x="0" y="0"/>
<g fill="white" stroke="none" transform="translate(0.000000,920.000000) scale(0.100000,-0.100000)">
<path d="M0 4600 l0 -4600 5120 0 5120 0 0 4600 0 4600 -5120 0 -5120 0 0 -4600z m8054 2622 c-17 -15 -93 -82 -170 -149 -311 -272 -641 -602 -919 -917 -639 -728 -1348 -1864 -1763 -2826 -148 -344 -353 -911 -428 -1182 l-15 -58 -89 0 -89 0 15 52 c79 273 235 713 355 1001 151 362 420 899 613 1226 633 1069 1216 1786 2015 2475 166 143 490 406 501 406 3 0 -9 -13 -26 -28z m-3669 -1062 c216 -20 444 -79 590 -152 132 -67 271 -181 330 -271 10 -15 19 -26 21 -24 3 3 34 282 34 305 0 1 272 2 605 2 397 0 605 -3 605 -10 0 -5 -3 -10 -7 -10 -10 0 -175 -186 -298 -335 -343 -417 -728 -1008 -1044 -1605 l-61 -115 5 50 c11 98 85 853 85 864 0 9 -48 12 -177 11 -98 0 -194 -1 -214 0 l-36 0 -6 83 c-18 272 -188 486 -442 558 -79 22 -379 19 -475 -5 -205 -50 -419 -212 -556 -417 -163 -245 -275 -671 -291 -1104 -9 -237 20 -441 81 -580 74 -167 228 -313 395 -376 204 -77 522 -60 699 38 205 112 385 317 473 536 l23 57 143 0 c79 0 143 -2 143 -5 0 -3 -9 -23 -20 -44 -101 -198 -281 -640 -380 -931 l-77 -224 -79 -29 c-75 -27 -233 -70 -299 -81 -213 -35 -534 -34 -735 2 -329 60 -608 198 -801 399 -126 132 -210 270 -273 452 -74 211 -100 387 -99 666 1 511 125 1025 336 1394 356 621 1054 970 1802 901z m3010 -145 c143 -20 222 -43 340 -100 182 -88 294 -199 383 -379 85 -174 119 -339 109 -541 -10 -201 -59 -386 -152 -580 -77 -158 -145 -257 -254 -366 -220 -219 -489 -337 -861 -378 -47 -5 -298 -9 -559 -10 -261 -1 -476 -3 -478 -5 -3 -3 -133 -1216 -133 -1243 0 -10 -74 -13 -336 -13 -315 0 -335 1 -330 18 3 9 28 90 56 180 68 220 146 437 245 682 111 276 175 416 335 735 l135 270 495 5 c531 6 550 8 667 61 171 76 295 227 343 415 71 275 1 495 -184 580 -106 48 -152 54 -433 54 -145 0 -263 2 -263 5 0 8 192 255 348 448 l144 178 146 -2 c81 0 188 -7 237 -14z" fill="white"/>
</g>
</svg>